<svg xmlns="http://www.w3.org/2000/svg" id="svg3860" width="32" height="400" version="1.1"><metadata id="metadata3865"/><g id="layer1" transform="translate(0,-652.36218)"><path id="path3874" fill="#e67a85" d="m1.8934,866.36c-2.281,0-1-6,1-6-1,0,0-5,2-5,0-2,2-3,4-3,8.448,0,5.477,2.114,14,3v16c-7.529,2.258-15,7.919-15,13-1.656,0-6-2,0-12h-6c-3,0-2-6,0-6zm23,5v-16h-2v-1h4c1.1,0,2,1.35,2,3v12c0,1.65-0.9,3-2,3h-4v-1h2z"/><path id="path3885" fill="#90d184" d="m27,970.36c2.281,0,1,6-1,6,1,0,0,5-2,5,0,2-2,3-4,3-8.448,0-5.477-2.114-14-3v-16c7.529-2.258,15-7.92,15-13,1.656,0,6,2,0,12h6c3,0,2,6,0,6zm-23-5v16h2v1h-4c-1.1,0-2-1.35-2-3v-12c0-1.65,0.9-3,2-3h4v1h-2z"/><path id="path3896" fill="#FFF" d="m1.8934,666.36c-2.281,0-1-6,1-6-1,0,0-5,2-5,0-2,2-3,4-3,8.448,0,5.477,2.114,14,3v16c-7.529,2.258-15,7.919-15,13-1.656,0-6-2,0-12h-6c-3,0-2-6,0-6zm23,5v-16h-2v-1h4c1.1,0,2,1.35,2,3v12c0,1.65-0.9,3-2,3h-4v-1h2z"/><path id="path3907" fill="#FFF" d="m27,770.36c2.281,0,1,6-1,6,1,0,0,5-2,5,0,2-2,3-4,3-8.448,0-5.477-2.114-14-3v-16c7.529-2.258,15-7.92,15-13,1.656,0,6,2,0,12h6c3,0,2,6,0,6zm-23-5v16h2v1h-4c-1.1,0-2-1.35-2-3v-12c0-1.65,0.9-3,2-3h4v1h-2z"/></g></svg>